<svg xmlns="http://www.w3.org/2000/svg" viewBox="0 0 64 64" width="64" height="64">
  <defs>
    <linearGradient id="g" x1="0" y1="0" x2="1" y2="1">
      <stop offset="0" stop-color="#f4e7c6"/>
      <stop offset="0.5" stop-color="#d4b577"/>
      <stop offset="1" stop-color="#9c7c4a"/>
    </linearGradient>
    <radialGradient id="bg" cx="50%" cy="34%" r="80%">
      <stop offset="0" stop-color="#13151a"/>
      <stop offset="1" stop-color="#08090b"/>
    </radialGradient>
  </defs>
  <rect width="64" height="64" rx="14" fill="url(#bg)"/>
  <rect x="3.5" y="3.5" width="57" height="57" rx="11.5" fill="none" stroke="#cdb077" stroke-opacity="0.22" stroke-width="1"/>
  <g fill="none" stroke="url(#g)" stroke-width="2.2" stroke-linecap="round" stroke-linejoin="round">
    <path d="M21 23c-5-3.5-9.5-2-10.5 2.5 6.5 1 8 6.5 7.6 10.5"/>
    <path d="M43 23c5-3.5 9.5-2 10.5 2.5-6.5 1-8 6.5-7.6 10.5"/>
    <path d="M22.5 21c2-5.2 5.6-8 9.5-8s7.5 2.8 9.5 8c2.6 6.4 2 13.6-2.2 18.8-2.4 3-5 4.6-7.3 4.6s-4.9-1.6-7.3-4.6C20.5 34.6 19.9 27.4 22.5 21Z"/>
    <path d="M27 30.5h.01M37 30.5h.01"/>
    <path d="M28.5 40.5c2.2 2 4.8 2 7 0"/>
  </g>
</svg>
