<svg xmlns="http://www.w3.org/2000/svg" viewBox="0 0 64 64" width="64" height="64">
  <defs>
    <linearGradient id="g" x1="0" y1="0" x2="1" y2="1">
      <stop offset="0" stop-color="#f2d9a0"/>
      <stop offset="0.5" stop-color="#e0a43b"/>
      <stop offset="1" stop-color="#95661d"/>
    </linearGradient>
    <radialGradient id="bg" cx="50%" cy="34%" r="80%">
      <stop offset="0" stop-color="#2a2016"/>
      <stop offset="1" stop-color="#16110b"/>
    </radialGradient>
  </defs>
  <rect width="64" height="64" rx="14" fill="url(#bg)"/>
  <rect x="3.5" y="3.5" width="57" height="57" rx="11.5" fill="none" stroke="#e0a43b" stroke-opacity="0.22" stroke-width="1"/>
  <g fill="none" stroke="url(#g)" stroke-width="2.2" stroke-linecap="round" stroke-linejoin="round" transform="translate(6.4 6.4) scale(0.8)">
    <path d="M32 6v5"/>
    <path d="M18.5 10.5l2.6 4.4"/>
    <path d="M45.5 10.5l-2.6 4.4"/>
    <path d="M26.5 20c-1.4-2.4 1.4-3.6 0-6"/>
    <path d="M32 19c-1.4-2.4 1.4-3.6 0-6"/>
    <path d="M37.5 20c-1.4-2.4 1.4-3.6 0-6"/>
    <path d="M18 26h26v7c0 7.2-5.8 13-13 13s-13-5.8-13-13v-7Z"/>
    <path d="M44 29h3.5a4.5 4.5 0 0 1 0 9H42.5"/>
    <path d="M15 52c5 2.6 29 2.6 34 0"/>
    <path d="M29.5 57.5c0-1.4 2.2-2.5 2.5-2.5s2.5 1.1 2.5 2.5-2.2 2.5-2.5 2.5-2.5-1.1-2.5-2.5Z" stroke-width="1.8"/>
  </g>
</svg>
