<svg xmlns="http://www.w3.org/2000/svg" viewBox="0 0 64 64" width="64" height="64">
  <defs>
    <linearGradient id="g" x1="0" y1="0" x2="1" y2="1">
      <stop offset="0" stop-color="#f4d780"/>
      <stop offset="0.5" stop-color="#caa24a"/>
      <stop offset="1" stop-color="#a07e2f"/>
    </linearGradient>
  </defs>
  <rect width="64" height="64" rx="14" fill="#0b0f0d"/>
  <g fill="none" stroke="url(#g)" stroke-width="2.4" stroke-linecap="round" stroke-linejoin="round">
    <path d="M20 24c-3-2-6-1-7 2 5 1 6 5 6 8"/>
    <path d="M44 24c3-2 6-1 7 2-5 1-6 5-6 8"/>
    <path d="M22 22c2-5 6-8 10-8s8 3 10 8c2 5 2 12-2 17-2 3-5 5-8 5s-6-2-8-5c-4-5-4-12-2-17Z"/>
    <path d="M27 30h.01M37 30h.01"/>
    <path d="M29 40c1 1.5 4 1.5 6 0"/>
  </g>
</svg>
