<svg viewBox="0 0 300 420" xmlns="http://www.w3.org/2000/svg">
<defs>
<linearGradient id="gold" x1="0%" y1="0%" x2="0%" y2="100%">
<stop offset="0%" stop-color="#f4e7c6"/>
<stop offset="100%" stop-color="#9c7c4a"/>
</linearGradient>
<radialGradient id="glow" cx="50%" cy="50%" r="50%" fx="50%" fy="50%">
<stop offset="0%" stop-color="#cdb077" stop-opacity="0.1"/>
<stop offset="100%" stop-color="transparent"/>
</radialGradient>
<path id="petal" d="M 150 178 Q 170 160 150 120 Q 130 160 150 178" fill="none" stroke="url(#gold)" opacity="0.4"/>
</defs>
<rect x="0" y="0" width="300" height="420" fill="#0c0e11"/>
<rect x="6" y="6" width="288" height="408" fill="none" stroke="url(#gold)" stroke-width="0.8" opacity="0.6"/>
<rect x="12" y="12" width="276" height="396" fill="none" stroke="url(#gold)" stroke-width="0.5" opacity="0.3"/>
<ellipse cx="150" cy="210" rx="80" ry="110" fill="url(#glow)"/>
<path d="M 0 100 L 300 320" stroke="#cdb077" opacity="0.15"/>
<path d="M 0 320 L 300 100" stroke="#cdb077" opacity="0.15"/>
<path d="M 100 0 L 200 420" stroke="#cdb077" opacity="0.15"/>
<path d="M 200 0 L 100 420" stroke="#cdb077" opacity="0.15"/>
<circle cx="150" cy="210" r="32" fill="none" stroke="url(#gold)" opacity="0.5"/>
<g>
<use href="#petal" transform="rotate(0 150 210)"/>
<use href="#petal" transform="rotate(45 150 210)"/>
<use href="#petal" transform="rotate(90 150 210)"/>
<use href="#petal" transform="rotate(135 150 210)"/>
<use href="#petal" transform="rotate(180 150 210)"/>
<use href="#petal" transform="rotate(225 150 210)"/>
<use href="#petal" transform="rotate(270 150 210)"/>
<use href="#petal" transform="rotate(315 150 210)"/>
</g>
<path d="M 12 50 C 12 20 50 12 80 12" fill="none" stroke="#cdb077" opacity="0.35"/>
<path d="M 288 50 C 288 20 250 12 220 12" fill="none" stroke="#cdb077" opacity="0.35"/>
<path d="M 12 370 C 12 400 50 408 80 408" fill="none" stroke="#cdb077" opacity="0.35"/>
<path d="M 288 370 C 288 400 250 408 220 408" fill="none" stroke="#cdb077" opacity="0.35"/>
</svg>